# xmcd
#
# Track frame offsets:
#	150
#	15206
#	28465
#	42838
#	57489
#	70583
#	82845
#	96255
#	108461
#	123917
#	137753
#	152379
#	165926
#	178660
#	192349
#	206359
#	219683
#	235355
#	247878
#	263357
#	277031
#	290213
#	319028
#
# Disc length: 4450 seconds
# Revision: 1
# Processed by: cddbd v1.5.2PL0 Copyright (c) Steve Scherf et al.
# Submitted via: dBpowerAMP V12.0
#
DISCID=3e116017
DTITLE=Various Artist - American Epic: The Collection
DYEAR=1935
DGENRE=Blues - Folk
TTITLE0=Lane Hardin - Hard Time Blues
TTITLE1=Charley Patton - Down the Dirt Road Blues
TTITLE2=Banjo Joe - Poor Boy, Long Ways From Home
TTITLE3=Blind Blake and Charlie Spand - Hastings Street
TTITLE4=Blind Lemon Jefferson - See That My Grave Is Kept Clean
TTITLE5=Golden Melody Boys - Gonna Have 'lasses In the Morning
TTITLE6=Memphis Minnie and Bumble Bee Slim - New Orleans Stop Time
TTITLE7=Ma Rainey - Prove It On Me Blues
TTITLE8=Williamson Brothers and Curry, The - Gonna Die With My Hammer In My Hand
TTITLE9=Geeshie Wiley - Last Kind Words Blues
TTITLE10=Dixieland Jug Blowers, The - Banjoreno
TTITLE11=Beale Street Sheiks - It's a Good Thing
TTITLE12=Blind Willie Davis - Trust In God And Do the Right
TTITLE13=Sleepy John Estes - Someday Baby Blues
TTITLE14=Sam Collins - Lonesome Road Blues
TTITLE15=Willie Brown - Future Blues
TTITLE16=Henry Thomas - Bull Doze Blues
TTITLE17=Massey Family, The - Brown Skin Gal (Down the Lane)
TTITLE18=Dick Justice - Henry Lee (a.k.a. Young Hunting)
TTITLE19=William Moore - Old Country Rock
TTITLE20=Delma Lachney and Blind Uncle Gaspard - La Danseuse
TTITLE21=Son House - My Black Mama (Parts 1 and 2)
TTITLE22=Skip James - Cypress Grove Blues
EXTD=
EXTT0=
EXTT1=
EXTT2=
EXTT3=
EXTT4=
EXTT5=
EXTT6=
EXTT7=
EXTT8=
EXTT9=
EXTT10=
EXTT11=
EXTT12=
EXTT13=
EXTT14=
EXTT15=
EXTT16=
EXTT17=
EXTT18=
EXTT19=
EXTT20=
EXTT21=
EXTT22=
PLAYORDER=
